<?xml version="1.0" standalone="no"?>
<!DOCTYPE svg PUBLIC "-//W3C//DTD SVG 1.1//EN"
  "http://www.w3.org/Graphics/SVG/1.1/DTD/svg11.dtd">
<svg width="4cm" height="4cm" viewBox="0 0 400 400"
     xmlns="http://www.w3.org/2000/svg" version="1.1">
  <title>Example triangle01- simple example of a 'path'</title>
  <desc>A path that draws a triangle</desc>
  <rect x="1" y="1" width="398" height="398"
        fill="none" stroke="blue" />
  <path d="M367 215c45 0 81 -37 81 -83c0 -45 -37 -84 -82 -84h-276c-50 0 -90 42 -90 92c0 40 26 71 61 83c5 28 29 52 59 52c10 0 18 -2 26 -6c19 39 59 67 105 67c64 0 117 -53 117 -117c0 -1 -1 -3 -1 -4zM366 64c37 0 66 32 66 69s-29 67 -66 67h-15v21c0 56 -46 99 -101 99c-38 0 -73 -23 -90 -58l-6 -14l-14 7c-6 3 -13 5 -20 5c-22 0 -40 -17 -44 -39l-1 -9l-9 -3c-30 -10 -50 -37 -50 -69c0 -41 33 -76 74 -76h272h4z"
        fill="red" stroke="blue" stroke-width="3" />
</svg>
