<?xml version="1.0" encoding="utf-8"?>
<!-- Generator: Adobe Illustrator 18.1.1, SVG Export Plug-In . SVG Version: 6.00 Build 0)  -->
<svg version="1.1" id="Layer_1" xmlns="http://www.w3.org/2000/svg" xmlns:xlink="http://www.w3.org/1999/xlink" x="0px" y="0px"
	 viewBox="-248 340.6 113.4 113.4" enable-background="new -248 340.6 113.4 113.4" xml:space="preserve">
<title>Example triangle01- simple example of a &apos;path&apos;</title>
<desc>A path that draws a triangle</desc>
<rect x="-247.7" y="340.9" fill="none" stroke="#0000FF" width="112.8" height="112.8"/>
<path fill="#FF0000" stroke="#0000FF" stroke-width="3" d="M-248,286.2v-4.5h15.6v4.5H-248z M-235.5,255.9l2.8-3.1l9.1,9.1l-3.1,3.1
	L-235.5,255.9z M-184.8,264.6l-3.1-3.1l9.1-9.1l3.1,3.1L-184.8,264.6z M-232.1,313.4l-2.8-3.1l8.8-8.8l3.1,3.1L-232.1,313.4z
	 M-181.4,277.1L-181.4,277.1c10.5,0,19.3,7.4,21.5,17.3h2.3c10.2,0,18.4,8.2,18.4,18.4c0,10.2-8.2,18.7-18.4,18.7h-44.5
	c-7.9,0-14.7-6.8-14.7-15c0-7.7,6-14.5,13.3-15v-2.3C-203.5,287-193.6,277.1-181.4,277.1z M-191,269.2l0.3,0.6l0,0
	c-8.8,1.4-17.6,12.2-17.6,21.3c0,0.6,0.3,1.4,0.3,2l-0.3,0.3h-0.3c-3.1,1.7-5.1,4-6.2,7.4v-0.3v0.3c-6.5-3.4-11.1-10.2-11.1-17.9
	c0-11.1,9.1-20.1,20.1-20.1C-199.8,262.7-194.7,265.2-191,269.2z"/>
</svg>
