<?xml version="1.0" standalone="no"?>
<!DOCTYPE svg PUBLIC "-//W3C//DTD SVG 1.1//EN"
  "http://www.w3.org/Graphics/SVG/1.1/DTD/svg11.dtd">
<svg width="4cm" height="4cm" viewBox="0 0 400 400"
     xmlns="http://www.w3.org/2000/svg" version="1.1">
  <title>Example triangle01- simple example of a 'path'</title>
  <desc>A path that draws a triangle</desc>
  <rect x="1" y="1" width="398" height="398"
        fill="none" stroke="blue" />
  <path d="M144 -298v54h-16v-54h-16zM0 -192v-16h55v16h-55zM44 -299l10 -11l32 32l-11 11zM223 -268l-11 -11l32 -32l11 11zM56 -96l-10 -11l31 -31l11 11zM235 -224v0c37 0 68 26 76 61h8c36 0 65 29 65 65s-29 66 -65 66h-157c-28 0 -52 -24 -52 -53c0 -27 21 -51 47 -53v-8c0 -43 35 -78 78 -78zM201 -252l1 2v0c-31 5 -62 43 -62 75c0 2 1 5 1 7l-1 1h-1c-11 6 -18 14 -22 26v-1v1c-23 -12 -39 -36 -39 -63c0 -39 32 -71 71 -71c21 0 39 9 52 23z"
    fill="red" stroke="blue" stroke-width="3" />
</svg>
