<?xml version="1.0" encoding="UTF-8"?><!DOCTYPE svg PUBLIC "-//W3C//DTD SVG 1.1//EN" "http://www.w3.org/Graphics/SVG/1.1/DTD/svg11.dtd"><svg xmlns="http://www.w3.org/2000/svg" xmlns:xlink="http://www.w3.org/1999/xlink" version="1.1" width="458" height="448" viewBox="0 0 448.00 458.00"><path
d="M154.7,83.8V25h-15.7v58.8 M6.9,181.5v-15.7h51.8v15.7H6.9z M49.9,76.8l9.8-10.8L91,97.4l-10.8,10.8L49.9,76.8z M225,107.2l-10.8-10.8l31.3-31.3l10.8,10.8L225,107.2z M61.7,275.4l-9.8-10.8l30.3-30.3L93,245.1L61.7,275.4z M243.8,142.2L243.8,142.2c36.2,0,66.5,25.4,74.3,59.7h7.8c35.2,0,63.6,28.4,63.6,63.6S361.1,330,325.9,330H172.4c-27.4,0-50.9-23.5-50.9-51.8c0-26.4,20.5-49.9,46-51.8v-7.8C167.5,176.4,201.7,142.2,243.8,142.2z M120.7,228.6c-22.5-11.7-40.1-35.3-40.1-61.7c0-38.1,31.3-69.4,69.4-69.4c20.5,0,38.1,8.8,50.9,22.5l1,2l0,0c-30.3,4.9-60.6,42.1-60.6,73.4c0,2,0.8,4.8,1,6.8l0,0l-2.4,0.4c-10.8,5.9-20.3,9.5-29.2,23.3" fill="white" stroke="gold" fillOpacity="0.8" stroke-width="20"/></svg>
