<?xml version="1.0" encoding="UTF-8"?><!DOCTYPE svg PUBLIC "-//W3C//DTD SVG 1.1//EN" "http://www.w3.org/Graphics/SVG/1.1/DTD/svg11.dtd"><svg xmlns="http://www.w3.org/2000/svg" xmlns:xlink="http://www.w3.org/1999/xlink" version="1.1" width="448" height="448" viewBox="0 0 448.00 448.00"><path
d="M128 280v16h192v-16h-192zM128 184v16h192v-16h-192zM128 88v16h192v-16h-192zM64 288c0 11 5 16 16 16s16 -5 16 -16s-5 -16 -16 -16s-16 5 -16 16zM64 192c0 11 5 16 16 16s16 -5 16 -16s-5 -16 -16 -16s-16 5 -16 16zM64 96c0 11 5 16 16 16s16 -5 16 -16s-5 -16 -16 -16s-16 5 -16 16z" /></svg>
