<?xml version="1.0" encoding="UTF-8"?><!DOCTYPE svg PUBLIC "-//W3C//DTD SVG 1.1//EN" "http://www.w3.org/Graphics/SVG/1.1/DTD/svg11.dtd"><svg xmlns="http://www.w3.org/2000/svg" xmlns:xlink="http://www.w3.org/1999/xlink" version="1.1" width="448" height="448" viewBox="0 0 448.00 448.00"><path
d="M441 311c4 -3 7 -8 7 -14v-281c0 -6 -3 -11 -8 -14c-2 -1 -5 -2 -7 -2c-3 0 -5 0 -7 2l-97 66l-97 -66c-5 -3 -11 -3 -16 0l-97 66l-97 -66c-4 -3 -10 -3 -15 0s-7 8 -7 14v281c0 6 3 11 7 14l105 71c5 3 10 3 15 0l97 -66l97 66c5 3 10 3 15 0zM103 95v241l-71 -49v-242
zM135 95l73 -49v131l-4 -13c-7 2 -14 6 -21 10l9 13c6 -4 10 -6 16 -8v109l-73 49v-101c4 -2 8 -4 12 -7l-9 -13c-1 1 -2 1 -3 2v-123zM240 46l73 49v109l-2 -2c-2 -2 -3 -4 -5 -6l-12 11c2 2 3 4 5 6c3 3 6 7 9 10l5 -5v119l-73 -49v-112h6l3 -15c-3 0 -6 -1 -9 -1v0v-114z
M416 46v0v242l-71 49v-88c3 1 5 2 8 2l3 -15c-4 -1 -7 -2 -11 -4v-137zM67 192v-1l-16 5l1 1c2 7 4 13 9 20l13 -9c-4 -5 -5 -10 -7 -16zM97 227c-3 -1 -11 -5 -14 -7l-11 12c4 3 7 6 11 8c3 2 7 3 10 4l5 -15c-2 -1 1 -1 -1 -2zM264 182c5 2 11 5 16 10l10 -12
c-6 -6 -12 -9 -19 -12zM166 210c4 -4 6 -7 10 -11l-11 -12c-4 4 -7 9 -11 13l-3 3l12 11c1 -1 2 -3 3 -4zM376 218l-12 12l11 10l-11 10l12 12l10 -11l10 11l12 -12l-11 -10l11 -10l-12 -12l-10 11z" /></svg>
